<?xml version="1.0" encoding="UTF-8" standalone="yes"?>
<!DOCTYPE svg PUBLIC "-//W3C//DTD SVG 1.0//EN" "http://www.w3.org/TR/2001/REC-SVG-20010904/DTD/svg10.dtd">
<svg height="31" width="31" xmlns="http://www.w3.org/2000/svg" xmlns:svg="http://www.w3.org/2000/svg" xmlns:xlink="http://www.w3.org/1999/xlink">
	<path d="M 0 0.5 M 1 0.5 M 2 0.5 M 3 0.5 M 4 0.5 M 5 0.5 M 6 0.5 M 7 0.5 M 8 0.5 M 9 0.5 M 10 0.5 M 11 0.5 M 12 0.5 M 13 0.5 M 14 0.5 M 15 0.5 M 16 0.5 M 17 0.5 M 18 0.5 M 19 0.5 M 20 0.5 M 21 0.5 M 22 0.5 M 23 0.5 M 24 0.5 M 25 0.5 M 26 0.5 M 27 0.5 M 28 0.5 M 29 0.5 M 30 0.5 M 31 0.5 M 0 1.5 M 1 1.5 H 2 H 3 H 4 H 5 H 6 H 7 H 8 M 9 1.5 H 10 H 11 H 12 M 13 1.5 H 14 M 15 1.5 M 16 1.5 M 17 1.5 M 18 1.5 H 19 M 20 1.5 H 21 H 22 M 23 1.5 H 24 H 25 H 26 H 27 H 28 H 29 H 30 M 31 1.5 M 0 2.5 M 1 2.5 H 2 M 3 2.5 M 4 2.5 M 5 2.5 M 6 2.5 M 7 2.5 H 8 M 9 2.5 H 10 H 11 H 12 M 13 2.5 M 14 2.5 M 15 2.5 M 16 2.5 M 17 2.5 H 18 H 19 M 20 2.5 H 21 M 22 2.5 M 23 2.5 H 24 M 25 2.5 M 26 2.5 M 27 2.5 M 28 2.5 M 29 2.5 H 30 M 31 2.5 M 0 3.5 M 1 3.5 H 2 M 3 3.5 H 4 H 5 H 6 M 7 3.5 H 8 M 9 3.5 H 10 M 11 3.5 H 12 H 13 M 14 3.5 H 15 M 16 3.5 H 17 H 18 M 19 3.5 M 20 3.5 M 21 3.5 M 22 3.5 M 23 3.5 H 24 M 25 3.5 H 26 H 27 H 28 M 29 3.5 H 30 M 31 3.5 M 0 4.5 M 1 4.5 H 2 M 3 4.5 H 4 H 5 H 6 M 7 4.5 H 8 M 9 4.5 H 10 H 11 M 12 4.5 H 13 M 14 4.5 M 15 4.5 H 16 H 17 H 18 H 19 H 20 M 21 4.5 M 22 4.5 M 23 4.5 H 24 M 25 4.5 H 26 H 27 H 28 M 29 4.5 H 30 M 31 4.5 M 0 5.5 M 1 5.5 H 2 M 3 5.5 H 4 H 5 H 6 M 7 5.5 H 8 M 9 5.5 M 10 5.5 M 11 5.5 M 12 5.5 M 13 5.5 M 14 5.5 H 15 H 16 M 17 5.5 H 18 M 19 5.5 H 20 H 21 M 22 5.5 M 23 5.5 H 24 M 25 5.5 H 26 H 27 H 28 M 29 5.5 H 30 M 31 5.5 M 0 6.5 M 1 6.5 H 2 M 3 6.5 M 4 6.5 M 5 6.5 M 6 6.5 M 7 6.5 H 8 M 9 6.5 H 10 M 11 6.5 M 12 6.5 H 13 H 14 H 15 H 16 H 17 M 18 6.5 M 19 6.5 H 20 M 21 6.5 H 22 M 23 6.5 H 24 M 25 6.5 M 26 6.5 M 27 6.5 M 28 6.5 M 29 6.5 H 30 M 31 6.5 M 0 7.5 M 1 7.5 H 2 H 3 H 4 H 5 H 6 H 7 H 8 M 9 7.5 H 10 M 11 7.5 H 12 M 13 7.5 H 14 M 15 7.5 H 16 M 17 7.5 H 18 M 19 7.5 H 20 M 21 7.5 H 22 M 23 7.5 H 24 H 25 H 26 H 27 H 28 H 29 H 30 M 31 7.5 M 0 8.5 M 1 8.5 M 2 8.5 M 3 8.5 M 4 8.5 M 5 8.5 M 6 8.5 M 7 8.5 M 8 8.5 M 9 8.5 M 10 8.5 H 11 M 12 8.5 M 13 8.5 H 14 M 15 8.5 H 16 M 17 8.5 M 18 8.5 H 19 H 20 H 21 H 22 M 23 8.5 M 24 8.5 M 25 8.5 M 26 8.5 M 27 8.5 M 28 8.5 M 29 8.5 M 30 8.5 M 31 8.5 M 0 9.5 M 1 9.5 H 2 H 3 M 4 9.5 M 5 9.5 H 6 H 7 H 8 M 9 9.5 M 10 9.5 M 11 9.5 M 12 9.5 H 13 M 14 9.5 H 15 H 16 H 17 H 18 M 19 9.5 H 20 M 21 9.5 M 22 9.5 M 23 9.5 M 24 9.5 H 25 M 26 9.5 H 27 H 28 H 29 H 30 M 31 9.5 M 0 10.5 M 1 10.5 M 2 10.5 H 3 M 4 10.5 H 5 H 6 M 7 10.5 M 8 10.5 H 9 M 10 10.5 H 11 H 12 M 13 10.5 H 14 M 15 10.5 M 16 10.5 M 17 10.5 M 18 10.5 H 19 M 20 10.5 H 21 H 22 H 23 M 24 10.5 M 25 10.5 H 26 H 27 H 28 M 29 10.5 M 30 10.5 M 31 10.5 M 0 11.5 M 1 11.5 M 2 11.5 H 3 H 4 M 5 11.5 M 6 11.5 M 7 11.5 H 8 M 9 11.5 H 10 M 11 11.5 M 12 11.5 H 13 H 14 H 15 H 16 H 17 M 18 11.5 M 19 11.5 H 20 M 21 11.5 H 22 M 23 11.5 M 24 11.5 M 25 11.5 M 26 11.5 H 27 M 28 11.5 M 29 11.5 M 30 11.5 M 31 11.5 M 0 12.5 M 1 12.5 M 2 12.5 M 3 12.5 M 4 12.5 M 5 12.5 H 6 M 7 12.5 M 8 12.5 M 9 12.5 M 10 12.5 M 11 12.5 H 12 H 13 M 14 12.5 H 15 M 16 12.5 H 17 H 18 M 19 12.5 M 20 12.5 M 21 12.5 M 22 12.5 H 23 M 24 12.5 H 25 M 26 12.5 M 27 12.5 M 28 12.5 H 29 M 30 12.5 M 31 12.5 M 0 13.5 M 1 13.5 M 2 13.5 M 3 13.5 M 4 13.5 H 5 H 6 M 7 13.5 H 8 M 9 13.5 M 10 13.5 M 11 13.5 H 12 M 13 13.5 H 14 H 15 M 16 13.5 M 17 13.5 M 18 13.5 M 19 13.5 M 20 13.5 H 21 H 22 H 23 H 24 M 25 13.5 H 26 M 27 13.5 H 28 H 29 H 30 M 31 13.5 M 0 14.5 M 1 14.5 H 2 H 3 H 4 H 5 M 6 14.5 H 7 M 8 14.5 H 9 H 10 M 11 14.5 M 12 14.5 M 13 14.5 M 14 14.5 H 15 H 16 M 17 14.5 H 18 M 19 14.5 H 20 H 21 M 22 14.5 M 23 14.5 M 24 14.5 H 25 M 26 14.5 M 27 14.5 M 28 14.5 M 29 14.5 M 30 14.5 M 31 14.5 M 0 15.5 M 1 15.5 H 2 M 3 15.5 M 4 15.5 M 5 15.5 H 6 M 7 15.5 H 8 H 9 H 10 M 11 15.5 H 12 M 13 15.5 M 14 15.5 M 15 15.5 M 16 15.5 M 17 15.5 H 18 H 19 M 20 15.5 H 21 M 22 15.5 H 23 H 24 H 25 H 26 M 27 15.5 H 28 H 29 H 30 M 31 15.5 M 0 16.5 M 1 16.5 H 2 M 3 16.5 H 4 M 5 16.5 M 6 16.5 H 7 M 8 16.5 H 9 M 10 16.5 M 11 16.5 M 12 16.5 M 13 16.5 H 14 M 15 16.5 H 16 M 17 16.5 M 18 16.5 H 19 H 20 H 21 H 22 M 23 16.5 H 24 M 25 16.5 H 26 H 27 H 28 H 29 M 30 16.5 M 31 16.5 M 0 17.5 M 1 17.5 M 2 17.5 M 3 17.5 H 4 H 5 M 6 17.5 M 7 17.5 H 8 M 9 17.5 M 10 17.5 H 11 H 12 H 13 M 14 17.5 H 15 H 16 H 17 H 18 M 19 17.5 H 20 M 21 17.5 M 22 17.5 M 23 17.5 M 24 17.5 H 25 H 26 H 27 H 28 M 29 17.5 M 30 17.5 M 31 17.5 M 0 18.5 M 1 18.5 H 2 M 3 18.5 H 4 M 5 18.5 M 6 18.5 M 7 18.5 M 8 18.5 H 9 M 10 18.5 M 11 18.5 M 12 18.5 M 13 18.5 H 14 M 15 18.5 M 16 18.5 M 17 18.5 M 18 18.5 H 19 M 20 18.5 H 21 H 22 H 23 M 24 18.5 M 25 18.5 H 26 H 27 H 28 H 29 M 30 18.5 M 31 18.5 M 0 19.5 M 1 19.5 M 2 19.5 M 3 19.5 H 4 M 5 19.5 H 6 H 7 H 8 H 9 H 10 H 11 M 12 19.5 H 13 H 14 H 15 H 16 H 17 M 18 19.5 M 19 19.5 H 20 M 21 19.5 H 22 M 23 19.5 M 24 19.5 M 25 19.5 M 26 19.5 H 27 M 28 19.5 M 29 19.5 H 30 M 31 19.5 M 0 20.5 M 1 20.5 M 2 20.5 M 3 20.5 M 4 20.5 M 5 20.5 M 6 20.5 M 7 20.5 M 8 20.5 H 9 H 10 M 11 20.5 H 12 H 13 M 14 20.5 H 15 M 16 20.5 H 17 H 18 M 19 20.5 M 20 20.5 M 21 20.5 M 22 20.5 H 23 M 24 20.5 H 25 M 26 20.5 M 27 20.5 M 28 20.5 M 29 20.5 H 30 M 31 20.5 M 0 21.5 M 1 21.5 H 2 H 3 H 4 M 5 21.5 H 6 H 7 H 8 M 9 21.5 H 10 H 11 M 12 21.5 M 13 21.5 H 14 H 15 M 16 21.5 M 17 21.5 M 18 21.5 M 19 21.5 M 20 21.5 H 21 H 22 H 23 H 24 H 25 H 26 M 27 21.5 H 28 M 29 21.5 M 30 21.5 M 31 21.5 M 0 22.5 M 1 22.5 M 2 22.5 M 3 22.5 M 4 22.5 M 5 22.5 M 6 22.5 M 7 22.5 M 8 22.5 M 9 22.5 H 10 H 11 H 12 M 13 22.5 M 14 22.5 H 15 H 16 M 17 22.5 H 18 M 19 22.5 H 20 H 21 H 22 M 23 22.5 M 24 22.5 M 25 22.5 H 26 M 27 22.5 M 28 22.5 H 29 M 30 22.5 M 31 22.5 M 0 23.5 M 1 23.5 H 2 H 3 H 4 H 5 H 6 H 7 H 8 M 9 23.5 M 10 23.5 M 11 23.5 M 12 23.5 M 13 23.5 M 14 23.5 M 15 23.5 M 16 23.5 M 17 23.5 H 18 H 19 M 20 23.5 M 21 23.5 H 22 M 23 23.5 H 24 M 25 23.5 H 26 M 27 23.5 H 28 M 29 23.5 H 30 M 31 23.5 M 0 24.5 M 1 24.5 H 2 M 3 24.5 M 4 24.5 M 5 24.5 M 6 24.5 M 7 24.5 H 8 M 9 24.5 H 10 H 11 M 12 24.5 M 13 24.5 H 14 M 15 24.5 H 16 M 17 24.5 M 18 24.5 H 19 H 20 H 21 H 22 M 23 24.5 M 24 24.5 M 25 24.5 H 26 H 27 H 28 H 29 M 30 24.5 M 31 24.5 M 0 25.5 M 1 25.5 H 2 M 3 25.5 H 4 H 5 H 6 M 7 25.5 H 8 M 9 25.5 H 10 M 11 25.5 H 12 H 13 M 14 25.5 H 15 H 16 H 17 H 18 M 19 25.5 H 20 M 21 25.5 H 22 H 23 H 24 H 25 H 26 H 27 H 28 M 29 25.5 M 30 25.5 M 31 25.5 M 0 26.5 M 1 26.5 H 2 M 3 26.5 H 4 H 5 H 6 M 7 26.5 H 8 M 9 26.5 M 10 26.5 H 11 M 12 26.5 M 13 26.5 H 14 M 15 26.5 M 16 26.5 M 17 26.5 M 18 26.5 H 19 M 20 26.5 H 21 M 22 26.5 H 23 H 24 M 25 26.5 H 26 H 27 H 28 M 29 26.5 M 30 26.5 M 31 26.5 M 0 27.5 M 1 27.5 H 2 M 3 27.5 H 4 H 5 H 6 M 7 27.5 H 8 M 9 27.5 M 10 27.5 M 11 27.5 H 12 H 13 H 14 H 15 H 16 H 17 M 18 27.5 M 19 27.5 H 20 H 21 H 22 H 23 H 24 M 25 27.5 H 26 H 27 M 28 27.5 H 29 H 30 M 31 27.5 M 0 28.5 M 1 28.5 H 2 M 3 28.5 M 4 28.5 M 5 28.5 M 6 28.5 M 7 28.5 H 8 M 9 28.5 H 10 M 11 28.5 H 12 H 13 M 14 28.5 H 15 M 16 28.5 H 17 H 18 M 19 28.5 M 20 28.5 H 21 M 22 28.5 H 23 H 24 H 25 H 26 M 27 28.5 M 28 28.5 H 29 H 30 M 31 28.5 M 0 29.5 M 1 29.5 H 2 H 3 H 4 H 5 H 6 H 7 H 8 M 9 29.5 H 10 H 11 H 12 M 13 29.5 H 14 H 15 M 16 29.5 M 17 29.5 M 18 29.5 M 19 29.5 M 20 29.5 H 21 H 22 H 23 M 24 29.5 H 25 M 26 29.5 M 27 29.5 H 28 H 29 M 30 29.5 M 31 29.5 M 0 30.5 M 1 30.5 M 2 30.5 M 3 30.5 M 4 30.5 M 5 30.5 M 6 30.5 M 7 30.5 M 8 30.5 M 9 30.5 M 10 30.5 M 11 30.5 M 12 30.5 M 13 30.5 M 14 30.5 M 15 30.5 M 16 30.5 M 17 30.5 M 18 30.5 M 19 30.5 M 20 30.5 M 21 30.5 M 22 30.5 M 23 30.5 M 24 30.5 M 25 30.5 M 26 30.5 M 27 30.5 M 28 30.5 M 29 30.5 M 30 30.5 M 31 30.5 " style="fill: none; stroke: rgb(0,0,0); stroke-width: 1; stroke-linecap: butt" />
</svg>